<svg width="854" height="153" viewBox="0 0 854 153" fill="none" xmlns="http://www.w3.org/2000/svg">
<mask id="path-1-outside-1_137_821" maskUnits="userSpaceOnUse" x="615.733" y="6.35547" width="92" height="106" fill="black">
<rect fill="white" x="615.733" y="6.35547" width="92" height="106"/>
<path fill-rule="evenodd" clip-rule="evenodd" d="M705.038 8.35547H678.263C678.263 8.35549 678.263 8.35551 678.263 8.35552H675.15C676.176 12.5115 679.236 17.0133 682.651 22.0373C688.295 30.3415 694.91 40.0725 694.91 52.0268V73.2176L646.762 8.35547H620.846V8.35552H617.733V8.78508L627.04 20.9558V64.7703C627.04 83.957 625.322 97.4164 622.745 108.442H648.661L651.774 108.442C650.8 104.278 647.867 99.7682 644.593 94.7336C639.196 86.4351 632.873 76.712 632.873 64.7702V28.4273L695.912 110.16H697.63L700.743 110.16V52.0268C700.743 32.8401 702.461 19.3807 705.038 8.35547Z"/>
</mask>
<path fill-rule="evenodd" clip-rule="evenodd" d="M705.038 8.35547H678.263C678.263 8.35549 678.263 8.35551 678.263 8.35552H675.15C676.176 12.5115 679.236 17.0133 682.651 22.0373C688.295 30.3415 694.91 40.0725 694.91 52.0268V73.2176L646.762 8.35547H620.846V8.35552H617.733V8.78508L627.04 20.9558V64.7703C627.04 83.957 625.322 97.4164 622.745 108.442H648.661L651.774 108.442C650.8 104.278 647.867 99.7682 644.593 94.7336C639.196 86.4351 632.873 76.712 632.873 64.7702V28.4273L695.912 110.16H697.63L700.743 110.16V52.0268C700.743 32.8401 702.461 19.3807 705.038 8.35547Z" fill="#808CE2"/>
<path d="M678.263 8.35547V6.90743H676.815V8.35547H678.263ZM705.038 8.35547L706.448 8.68509L706.864 6.90743H705.038V8.35547ZM678.263 8.35552V9.80357H679.711V8.35552H678.263ZM675.15 8.35552V6.90748H673.302L673.745 8.70243L675.15 8.35552ZM682.651 22.0373L681.453 22.8513L681.453 22.8513L682.651 22.0373ZM694.91 73.2176L693.747 74.0807L696.358 77.5978V73.2176H694.91ZM646.762 8.35547L647.925 7.49238L647.491 6.90743H646.762V8.35547ZM620.846 8.35547V6.90743H619.398V8.35547H620.846ZM620.846 8.35552V9.80357H622.294V8.35552H620.846ZM617.733 8.35552V6.90748H616.285V8.35552H617.733ZM617.733 8.78508H616.285V9.27529L616.583 9.66469L617.733 8.78508ZM627.04 20.9558H628.488V20.4656L628.191 20.0762L627.04 20.9558ZM622.745 108.442L621.335 108.112L620.919 109.89H622.745V108.442ZM648.661 108.442V109.89H648.661L648.661 108.442ZM651.774 108.442L651.774 109.89L653.599 109.89L653.184 108.112L651.774 108.442ZM644.593 94.7336L645.807 93.9441L644.593 94.7336ZM632.873 28.4273L634.02 27.543L631.425 24.1789V28.4273H632.873ZM695.912 110.16L694.766 111.044L695.2 111.608H695.912V110.16ZM697.63 110.16V111.608H697.63L697.63 110.16ZM700.743 110.16L700.743 111.608L702.191 111.608V110.16H700.743ZM678.263 9.80351H705.038V6.90743H678.263V9.80351ZM679.711 8.35552C679.711 8.25414 679.7 8.16559 679.687 8.09359C679.68 8.0575 679.673 8.02488 679.665 7.99617C679.658 7.96748 679.651 7.94196 679.644 7.92009C679.637 7.89824 679.63 7.87918 679.625 7.8635C679.619 7.84785 679.614 7.83461 679.61 7.82457C679.606 7.81459 679.603 7.80659 679.601 7.80182C679.6 7.79937 679.599 7.79739 679.598 7.7962C679.598 7.79559 679.598 7.7951 679.598 7.7948C679.598 7.79465 679.598 7.79453 679.598 7.79445C679.598 7.79442 679.598 7.79439 679.598 7.79437C679.598 7.79436 679.598 7.79435 679.598 7.79434C679.598 7.79434 679.598 7.79434 679.598 7.79434C679.597 7.79371 679.599 7.79744 679.601 7.80181C679.603 7.80658 679.606 7.81458 679.61 7.82455C679.614 7.83459 679.619 7.84783 679.625 7.86348C679.63 7.87916 679.637 7.89821 679.644 7.92007C679.651 7.94193 679.658 7.96745 679.665 7.99614C679.673 8.02485 679.68 8.05747 679.687 8.09355C679.7 8.16554 679.711 8.25409 679.711 8.35547H676.815C676.815 8.45685 676.825 8.54541 676.839 8.6174C676.845 8.65349 676.853 8.68611 676.86 8.71482C676.867 8.74351 676.875 8.76903 676.882 8.7909C676.889 8.81275 676.895 8.83181 676.901 8.84749C676.906 8.86314 676.912 8.87638 676.915 8.88643C676.919 8.8964 676.923 8.9044 676.925 8.90917C676.926 8.91162 676.927 8.9136 676.927 8.91479C676.927 8.9154 676.927 8.91589 676.928 8.91619C676.928 8.91634 676.928 8.91646 676.928 8.91654C676.928 8.91658 676.928 8.91661 676.928 8.91663C676.928 8.91663 676.928 8.91664 676.928 8.91665C676.928 8.91665 676.928 8.91665 676.928 8.91665C676.928 8.91728 676.926 8.91355 676.925 8.90918C676.923 8.90441 676.919 8.89641 676.915 8.88644C676.912 8.8764 676.906 8.86316 676.901 8.84751C676.895 8.83183 676.889 8.81278 676.882 8.79093C676.875 8.76906 676.867 8.74354 676.86 8.71485C676.853 8.68615 676.845 8.65353 676.839 8.61744C676.825 8.54545 676.815 8.4569 676.815 8.35552H679.711ZM675.15 9.80357H678.263V6.90748H675.15V9.80357ZM683.848 21.2233C680.378 16.1171 677.505 11.8553 676.556 8.00862L673.745 8.70243C674.846 13.1676 678.094 17.9094 681.453 22.8513L683.848 21.2233ZM696.358 52.0268C696.358 39.5591 689.453 29.469 683.848 21.2233L681.453 22.8513C687.138 31.214 693.462 40.5859 693.462 52.0268H696.358ZM696.358 73.2176V52.0268H693.462V73.2176H696.358ZM645.599 9.21856L693.747 74.0807L696.073 72.3545L647.925 7.49238L645.599 9.21856ZM620.846 9.80351H646.762V6.90743H620.846V9.80351ZM622.294 8.35552V8.35547H619.398V8.35552H622.294ZM617.733 9.80357H620.846V6.90748H617.733V9.80357ZM619.181 8.78508V8.35552H616.285V8.78508H619.181ZM628.191 20.0762L618.884 7.90547L616.583 9.66469L625.89 21.8354L628.191 20.0762ZM628.488 64.7703V20.9558H625.592V64.7703H628.488ZM624.155 108.771C626.762 97.6199 628.488 84.0478 628.488 64.7703H625.592C625.592 83.8662 623.883 97.2128 621.335 108.112L624.155 108.771ZM648.661 106.994H622.745V109.89H648.661V106.994ZM651.773 106.993L648.661 106.994L648.661 109.89L651.774 109.89L651.773 106.993ZM643.379 95.523C646.705 100.637 649.461 104.911 650.363 108.771L653.184 108.112C652.14 103.646 649.029 98.8991 645.807 93.9441L643.379 95.523ZM631.425 64.7702C631.425 77.2052 638.017 87.277 643.379 95.523L645.807 93.9441C640.376 85.5933 634.321 76.2188 634.321 64.7702H631.425ZM631.425 28.4273V64.7702H634.321V28.4273H631.425ZM697.059 109.275L634.02 27.543L631.727 29.3117L694.766 111.044L697.059 109.275ZM697.63 108.712H695.912V111.608H697.63V108.712ZM700.743 108.712L697.63 108.712L697.63 111.608L700.743 111.608L700.743 108.712ZM699.295 52.0268V110.16H702.191V52.0268H699.295ZM703.628 8.02585C701.021 19.1771 699.295 32.7492 699.295 52.0268H702.191C702.191 32.9309 703.9 19.5842 706.448 8.68509L703.628 8.02585Z" fill="black" mask="url(#path-1-outside-1_137_821)"/>
<mask id="path-3-outside-2_137_821" maskUnits="userSpaceOnUse" x="621.336" y="6.35547" width="92" height="106" fill="black">
<rect fill="white" x="621.336" y="6.35547" width="92" height="106"/>
<path fill-rule="evenodd" clip-rule="evenodd" d="M710.641 8.35547H683.866C683.866 8.35549 683.866 8.35551 683.866 8.35552H680.753C681.779 12.5115 684.839 17.0133 688.254 22.0373C693.898 30.3415 700.513 40.0725 700.513 52.0268V73.2175L652.365 8.35547H626.449V8.35552H623.336V8.78508L632.643 20.9558V64.7703C632.643 83.957 630.925 97.4164 628.348 108.442H654.264L657.377 108.442C656.403 104.278 653.47 99.7682 650.196 94.7336C644.799 86.4351 638.476 76.712 638.476 64.7702V28.4275L701.515 110.16H703.233L706.346 110.16V52.0268C706.346 32.8401 708.064 19.3807 710.641 8.35547Z"/>
</mask>
<path fill-rule="evenodd" clip-rule="evenodd" d="M710.641 8.35547H683.866C683.866 8.35549 683.866 8.35551 683.866 8.35552H680.753C681.779 12.5115 684.839 17.0133 688.254 22.0373C693.898 30.3415 700.513 40.0725 700.513 52.0268V73.2175L652.365 8.35547H626.449V8.35552H623.336V8.78508L632.643 20.9558V64.7703C632.643 83.957 630.925 97.4164 628.348 108.442H654.264L657.377 108.442C656.403 104.278 653.47 99.7682 650.196 94.7336C644.799 86.4351 638.476 76.712 638.476 64.7702V28.4275L701.515 110.16H703.233L706.346 110.16V52.0268C706.346 32.8401 708.064 19.3807 710.641 8.35547Z" fill="#FF7372"/>
<path d="M683.866 8.35547V6.90743H682.418V8.35547H683.866ZM710.641 8.35547L712.051 8.68509L712.467 6.90743H710.641V8.35547ZM683.866 8.35552V9.80357H685.314V8.35552H683.866ZM680.753 8.35552V6.90748H678.905L679.347 8.70243L680.753 8.35552ZM688.254 22.0373L687.056 22.8513L687.056 22.8513L688.254 22.0373ZM700.513 73.2175L699.35 74.0806L701.961 77.5976V73.2175H700.513ZM652.365 8.35547L653.528 7.49238L653.094 6.90743H652.365V8.35547ZM626.449 8.35547V6.90743H625.001V8.35547H626.449ZM626.449 8.35552V9.80357H627.897V8.35552H626.449ZM623.336 8.35552V6.90748H621.888V8.35552H623.336ZM623.336 8.78508H621.888V9.27529L622.186 9.66469L623.336 8.78508ZM632.643 20.9558H634.091V20.4656L633.794 20.0762L632.643 20.9558ZM628.348 108.442L626.938 108.112L626.522 109.89H628.348V108.442ZM654.264 108.442V109.89H654.264L654.264 108.442ZM657.377 108.442L657.377 109.89L659.202 109.89L658.787 108.112L657.377 108.442ZM650.196 94.7336L651.41 93.9441L650.196 94.7336ZM638.476 28.4275L639.623 27.5431L637.028 24.179V28.4275H638.476ZM701.515 110.16L700.369 111.044L700.803 111.608H701.515V110.16ZM703.233 110.16V111.608H703.233L703.233 110.16ZM706.346 110.16L706.346 111.608L707.794 111.608V110.16H706.346ZM683.866 9.80351H710.641V6.90743H683.866V9.80351ZM685.314 8.35552C685.314 8.25414 685.303 8.16559 685.29 8.09359C685.283 8.0575 685.276 8.02488 685.268 7.99617C685.261 7.96748 685.254 7.94196 685.247 7.92009C685.24 7.89824 685.233 7.87918 685.228 7.8635C685.222 7.84785 685.217 7.83461 685.213 7.82457C685.209 7.81459 685.206 7.80659 685.204 7.80182C685.203 7.79937 685.202 7.79739 685.201 7.7962C685.201 7.79559 685.201 7.7951 685.201 7.7948C685.201 7.79465 685.201 7.79453 685.201 7.79445C685.201 7.79442 685.201 7.79439 685.201 7.79437C685.201 7.79436 685.201 7.79435 685.201 7.79434C685.201 7.79434 685.201 7.79434 685.201 7.79434C685.2 7.79371 685.202 7.79744 685.204 7.80181C685.206 7.80658 685.209 7.81458 685.213 7.82455C685.217 7.83459 685.222 7.84783 685.228 7.86348C685.233 7.87916 685.24 7.89821 685.247 7.92007C685.254 7.94193 685.261 7.96745 685.268 7.99614C685.276 8.02485 685.283 8.05747 685.29 8.09355C685.303 8.16554 685.314 8.25409 685.314 8.35547H682.418C682.418 8.45685 682.428 8.54541 682.442 8.6174C682.448 8.65349 682.456 8.68611 682.463 8.71482C682.47 8.74351 682.478 8.76903 682.485 8.7909C682.492 8.81275 682.498 8.83181 682.504 8.84749C682.509 8.86314 682.515 8.87638 682.518 8.88643C682.522 8.8964 682.526 8.9044 682.528 8.90917C682.529 8.91162 682.53 8.9136 682.53 8.91479C682.53 8.9154 682.53 8.91589 682.531 8.91619C682.531 8.91634 682.531 8.91646 682.531 8.91654C682.531 8.91658 682.531 8.91661 682.531 8.91663C682.531 8.91663 682.531 8.91664 682.531 8.91665C682.531 8.91665 682.531 8.91665 682.531 8.91665C682.531 8.91728 682.529 8.91355 682.528 8.90918C682.526 8.90441 682.522 8.89641 682.518 8.88644C682.515 8.8764 682.509 8.86316 682.504 8.84751C682.498 8.83183 682.492 8.81278 682.485 8.79093C682.478 8.76906 682.47 8.74354 682.463 8.71485C682.456 8.68615 682.448 8.65353 682.442 8.61744C682.428 8.54545 682.418 8.4569 682.418 8.35552H685.314ZM680.753 9.80357H683.866V6.90748H680.753V9.80357ZM689.451 21.2233C685.981 16.1171 683.108 11.8553 682.159 8.00862L679.347 8.70243C680.449 13.1676 683.697 17.9094 687.056 22.8513L689.451 21.2233ZM701.961 52.0268C701.961 39.5591 695.056 29.469 689.451 21.2233L687.056 22.8513C692.741 31.214 699.065 40.5859 699.065 52.0268H701.961ZM701.961 73.2175V52.0268H699.065V73.2175H701.961ZM651.202 9.21856L699.35 74.0806L701.676 72.3544L653.528 7.49238L651.202 9.21856ZM626.449 9.80351H652.365V6.90743H626.449V9.80351ZM627.897 8.35552V8.35547H625.001V8.35552H627.897ZM623.336 9.80357H626.449V6.90748H623.336V9.80357ZM624.784 8.78508V8.35552H621.888V8.78508H624.784ZM633.794 20.0762L624.487 7.90547L622.186 9.66469L631.493 21.8354L633.794 20.0762ZM634.091 64.7703V20.9558H631.195V64.7703H634.091ZM629.758 108.771C632.365 97.6199 634.091 84.0478 634.091 64.7703H631.195C631.195 83.8662 629.486 97.2128 626.938 108.112L629.758 108.771ZM654.264 106.994H628.348V109.89H654.264V106.994ZM657.376 106.993L654.264 106.994L654.264 109.89L657.377 109.89L657.376 106.993ZM648.982 95.523C652.308 100.637 655.064 104.911 655.966 108.771L658.787 108.112C657.743 103.646 654.632 98.8991 651.41 93.9441L648.982 95.523ZM637.028 64.7702C637.028 77.2052 643.62 87.277 648.982 95.523L651.41 93.9441C645.979 85.5933 639.924 76.2188 639.924 64.7702H637.028ZM637.028 28.4275V64.7702H639.924V28.4275H637.028ZM702.662 109.275L639.623 27.5431L637.33 29.3118L700.369 111.044L702.662 109.275ZM703.233 108.712H701.515V111.608H703.233V108.712ZM706.346 108.712L703.233 108.712L703.233 111.608L706.346 111.608L706.346 108.712ZM704.898 52.0268V110.16H707.794V52.0268H704.898ZM709.231 8.02585C706.624 19.1771 704.898 32.7492 704.898 52.0268H707.794C707.794 32.9309 709.503 19.5842 712.051 8.68509L709.231 8.02585Z" fill="black" mask="url(#path-3-outside-2_137_821)"/>
<mask id="path-5-outside-3_137_821" maskUnits="userSpaceOnUse" x="627.562" y="6.35547" width="92" height="106" fill="black">
<rect fill="white" x="627.562" y="6.35547" width="92" height="106"/>
<path fill-rule="evenodd" clip-rule="evenodd" d="M716.867 8.35547H690.091C690.091 8.35549 690.091 8.35551 690.091 8.35552H686.979C688.004 12.5115 691.064 17.0133 694.479 22.0373C700.124 30.3415 706.738 40.0725 706.738 52.0268V73.2174L658.591 8.35547H632.674V8.35552H629.562V8.78508L638.869 20.9558V64.7703C638.869 83.957 637.151 97.4164 634.573 108.442H660.49L663.602 108.442C662.629 104.278 659.696 99.7682 656.422 94.7336C651.025 86.4351 644.702 76.712 644.702 64.7702V28.4276L707.741 110.16H709.459L712.571 110.16V52.0268C712.571 32.8401 714.289 19.3807 716.867 8.35547Z"/>
</mask>
<path fill-rule="evenodd" clip-rule="evenodd" d="M716.867 8.35547H690.091C690.091 8.35549 690.091 8.35551 690.091 8.35552H686.979C688.004 12.5115 691.064 17.0133 694.479 22.0373C700.124 30.3415 706.738 40.0725 706.738 52.0268V73.2174L658.591 8.35547H632.674V8.35552H629.562V8.78508L638.869 20.9558V64.7703C638.869 83.957 637.151 97.4164 634.573 108.442H660.49L663.602 108.442C662.629 104.278 659.696 99.7682 656.422 94.7336C651.025 86.4351 644.702 76.712 644.702 64.7702V28.4276L707.741 110.16H709.459L712.571 110.16V52.0268C712.571 32.8401 714.289 19.3807 716.867 8.35547Z" fill="#FEC753"/>
<path d="M690.091 8.35547V6.90743H688.643V8.35547H690.091ZM716.867 8.35547L718.277 8.68509L718.692 6.90743H716.867V8.35547ZM690.091 8.35552V9.80357H691.539V8.35552H690.091ZM686.979 8.35552V6.90748H685.13L685.573 8.70243L686.979 8.35552ZM694.479 22.0373L693.282 22.8513L693.282 22.8513L694.479 22.0373ZM706.738 73.2174L705.576 74.0805L708.186 77.5975V73.2174H706.738ZM658.591 8.35547L659.753 7.49238L659.319 6.90743H658.591V8.35547ZM632.674 8.35547V6.90743H631.226V8.35547H632.674ZM632.674 8.35552V9.80357H634.122V8.35552H632.674ZM629.562 8.35552V6.90748H628.114V8.35552H629.562ZM629.562 8.78508H628.114V9.27529L628.412 9.66469L629.562 8.78508ZM638.869 20.9558H640.317V20.4656L640.019 20.0762L638.869 20.9558ZM634.573 108.442L633.163 108.112L632.748 109.89H634.573V108.442ZM660.49 108.442V109.89H660.49L660.49 108.442ZM663.602 108.442L663.602 109.89L665.428 109.89L665.012 108.112L663.602 108.442ZM656.422 94.7336L657.636 93.9441L656.422 94.7336ZM644.702 28.4276L645.848 27.5432L643.254 24.1791V28.4276H644.702ZM707.741 110.16L706.594 111.044L707.029 111.608H707.741V110.16ZM709.459 110.16V111.608H709.459L709.459 110.16ZM712.571 110.16L712.571 111.608L714.019 111.608V110.16H712.571ZM690.091 9.80351H716.867V6.90743H690.091V9.80351ZM691.539 8.35552C691.539 8.25414 691.529 8.16559 691.515 8.09359C691.509 8.0575 691.501 8.02488 691.494 7.99617C691.487 7.96748 691.479 7.94196 691.472 7.92009C691.465 7.89824 691.459 7.87918 691.453 7.8635C691.447 7.84785 691.442 7.83461 691.438 7.82457C691.434 7.81459 691.431 7.80659 691.429 7.80182C691.428 7.79937 691.427 7.79739 691.427 7.7962C691.427 7.79559 691.426 7.7951 691.426 7.7948C691.426 7.79465 691.426 7.79453 691.426 7.79445C691.426 7.79442 691.426 7.79439 691.426 7.79437C691.426 7.79436 691.426 7.79435 691.426 7.79434C691.426 7.79434 691.426 7.79434 691.426 7.79434C691.426 7.79371 691.427 7.79744 691.429 7.80181C691.431 7.80658 691.434 7.81458 691.438 7.82455C691.442 7.83459 691.447 7.84783 691.453 7.86348C691.459 7.87916 691.465 7.89821 691.472 7.92007C691.479 7.94193 691.487 7.96745 691.494 7.99614C691.501 8.02485 691.509 8.05747 691.515 8.09355C691.529 8.16554 691.539 8.25409 691.539 8.35547H688.643C688.643 8.45685 688.654 8.54541 688.667 8.6174C688.674 8.65349 688.681 8.68611 688.688 8.71482C688.696 8.74351 688.703 8.76903 688.71 8.7909C688.717 8.81275 688.724 8.83181 688.729 8.84749C688.735 8.86314 688.74 8.87638 688.744 8.88643C688.748 8.8964 688.751 8.9044 688.753 8.90917C688.754 8.91162 688.755 8.9136 688.756 8.91479C688.756 8.9154 688.756 8.91589 688.756 8.91619C688.756 8.91634 688.756 8.91646 688.756 8.91654C688.756 8.91658 688.756 8.91661 688.756 8.91663C688.756 8.91663 688.756 8.91664 688.756 8.91665C688.756 8.91665 688.756 8.91665 688.756 8.91665C688.757 8.91728 688.755 8.91355 688.753 8.90918C688.751 8.90441 688.748 8.89641 688.744 8.88644C688.74 8.8764 688.735 8.86316 688.729 8.84751C688.724 8.83183 688.717 8.81278 688.71 8.79093C688.703 8.76906 688.696 8.74354 688.688 8.71485C688.681 8.68615 688.674 8.65353 688.667 8.61744C688.654 8.54545 688.643 8.4569 688.643 8.35552H691.539ZM686.979 9.80357H690.091V6.90748H686.979V9.80357ZM695.677 21.2233C692.206 16.1171 689.334 11.8553 688.385 8.00862L685.573 8.70243C686.675 13.1676 689.923 17.9094 693.282 22.8513L695.677 21.2233ZM708.186 52.0268C708.186 39.5591 701.282 29.469 695.677 21.2233L693.282 22.8513C698.966 31.214 705.29 40.5859 705.29 52.0268H708.186ZM708.186 73.2174V52.0268H705.29V73.2174H708.186ZM657.428 9.21856L705.576 74.0805L707.901 72.3543L659.753 7.49238L657.428 9.21856ZM632.674 9.80351H658.591V6.90743H632.674V9.80351ZM634.122 8.35552V8.35547H631.226V8.35552H634.122ZM629.562 9.80357H632.674V6.90748H629.562V9.80357ZM631.01 8.78508V8.35552H628.114V8.78508H631.01ZM640.019 20.0762L630.712 7.90547L628.412 9.66469L637.719 21.8354L640.019 20.0762ZM640.317 64.7703V20.9558H637.421V64.7703H640.317ZM635.983 108.771C638.59 97.6199 640.317 84.0478 640.317 64.7703H637.421C637.421 83.8662 635.711 97.2128 633.163 108.112L635.983 108.771ZM660.49 106.994H634.573V109.89H660.49V106.994ZM663.602 106.993L660.49 106.994L660.49 109.89L663.602 109.89L663.602 106.993ZM655.208 95.523C658.534 100.637 661.29 104.911 662.192 108.771L665.012 108.112C663.968 103.646 660.858 98.8991 657.636 93.9441L655.208 95.523ZM643.254 64.7702C643.254 77.2052 649.845 87.277 655.208 95.523L657.636 93.9441C652.205 85.5933 646.15 76.2188 646.15 64.7702H643.254ZM643.254 28.4276V64.7702H646.15V28.4276H643.254ZM708.887 109.275L645.848 27.5432L643.555 29.3119L706.594 111.044L708.887 109.275ZM709.459 108.712H707.741V111.608H709.459V108.712ZM712.571 108.712L709.459 108.712L709.459 111.608L712.571 111.608L712.571 108.712ZM711.123 52.0268V110.16H714.019V52.0268H711.123ZM715.457 8.02585C712.85 19.1771 711.123 32.7492 711.123 52.0268H714.019C714.019 32.9309 715.729 19.5842 718.277 8.68509L715.457 8.02585Z" fill="black" mask="url(#path-5-outside-3_137_821)"/>
<path d="M693.204 7.48838H692.28L692.501 8.38585C693.211 11.2632 694.841 14.2549 696.828 17.3778C697.825 18.9447 698.923 20.5608 700.053 22.2234L700.104 22.2986C701.22 23.9405 702.368 25.6298 703.495 27.3796C708.077 34.4935 712.239 42.5072 712.239 51.8837V73.922L662.281 7.77604L662.064 7.48838H661.703H635.787H635.063V8.2124V8.64196V8.88706L635.212 9.08177L644.37 21.0578V64.6272C644.37 83.7685 642.656 97.1715 640.093 108.134L639.886 109.022H640.798H666.715H667.628L667.42 108.134C666.748 105.259 665.193 102.269 663.293 99.1455C662.34 97.5786 661.29 95.9625 660.209 94.2998L660.143 94.1983C659.08 92.5646 657.987 90.884 656.914 89.1434C652.529 82.0307 648.538 74.0126 648.538 64.6272V26.3733L713.392 110.459L713.61 110.741H713.966H715.684H716.408V110.017V51.8837C716.408 32.7424 718.122 19.3394 720.684 8.37721L720.892 7.48838H719.979H693.204Z" fill="#FFF8EC" stroke="black" stroke-width="1.44804"/>
<path d="M438.671 82.8408H438.288L438.072 83.1586C429.503 95.8009 417.158 99.4502 407.457 99.4502C397.861 99.4502 389.669 95.6434 383.854 87.9776C378.021 80.2884 374.533 68.6498 374.533 52.9233C374.533 40.4627 376.707 29.1766 381.121 21.0339C385.521 12.9179 392.109 7.9714 401.014 7.9714C403.915 7.9714 406.699 9.80268 409.375 12.9744C412.039 16.1313 414.488 20.492 416.728 25.2677C418.965 30.0364 420.973 35.1764 422.767 39.8728C423.014 40.5196 423.257 41.1584 423.496 41.787C424.988 45.7068 426.328 49.2284 427.512 51.7834L427.937 52.6999L428.668 52.0033L448.279 33.327L448.806 32.8246L448.3 32.3002C444.407 28.2627 436.832 21.3037 428.19 15.3481C419.583 9.41643 409.772 4.37559 401.443 4.37559C386.386 4.37559 373.343 9.48201 364.062 18.7445C354.78 28.0085 349.316 41.3749 349.316 57.7916C349.316 72.9864 354.311 85.8447 362.921 94.9097C371.533 103.977 383.72 109.203 398.007 109.203C416.832 109.203 437.501 98.795 446.53 83.9409L447.199 82.8408H445.912H438.671Z" fill="#808CE2" stroke="black" stroke-width="1.44804"/>
<path d="M445.488 82.8408H445.104L444.889 83.1586C436.32 95.8009 423.975 99.4502 414.274 99.4502C404.678 99.4502 396.485 95.6434 390.671 87.9776C384.838 80.2884 381.35 68.6498 381.35 52.9233C381.35 40.4627 383.524 29.1766 387.938 21.0339C392.338 12.9179 398.925 7.9714 407.831 7.9714C410.773 7.9714 413.468 9.53762 415.978 12.2237C418.488 14.9098 420.742 18.6418 422.789 22.7904C424.832 26.9327 426.648 31.4469 428.298 35.6756C428.577 36.3895 428.851 37.0959 429.121 37.7913C430.444 41.1997 431.664 44.3431 432.804 46.8031L433.214 47.6889L433.943 47.0389L454.175 28.9852L454.737 28.4841L454.215 27.9424C450.294 23.8768 442.925 18.0005 434.507 13.1384C426.105 8.28562 416.544 4.37559 408.26 4.37559C393.203 4.37559 380.16 9.48201 370.879 18.7445C361.597 28.0085 356.133 41.3749 356.133 57.7916C356.133 72.9864 361.128 85.8447 369.738 94.9097C378.35 103.977 390.537 109.203 404.824 109.203C414.258 109.203 424.212 106.593 432.928 102.144C441.64 97.6962 449.164 91.3856 453.689 83.9409L454.358 82.8408H453.071H445.488Z" fill="#FF7372" stroke="black" stroke-width="1.44804"/>
<path d="M452.959 82.8408H452.575L452.359 83.1586C443.791 95.8009 431.445 99.4502 421.745 99.4502C412.149 99.4502 403.956 95.6434 398.141 87.9776C392.308 80.2884 388.82 68.6498 388.82 52.9233C388.82 40.4627 390.994 29.1766 395.409 21.0339C399.808 12.9179 406.396 7.9714 415.301 7.9714C418.282 7.9714 420.805 9.28402 423.027 11.5111C425.261 13.7506 427.16 16.8871 428.854 20.4467C430.545 24.0011 432.01 27.9271 433.4 31.7217C433.512 32.0277 433.623 32.3329 433.734 32.637C434.996 36.0893 436.208 39.405 437.473 42.134L437.879 43.0099L438.606 42.375L458.216 25.2551L458.789 24.7548L458.261 24.2071C454.333 20.1338 447.81 15.1864 440.237 11.2552C432.668 7.32585 423.98 4.37559 415.731 4.37559C400.673 4.37559 387.63 9.48201 378.349 18.7445C369.067 28.0085 363.603 41.3749 363.603 57.7916C363.603 72.9864 368.598 85.8447 377.208 94.9097C385.821 103.977 398.007 109.203 412.294 109.203C421.726 109.203 431.988 106.594 441.012 102.148C450.03 97.7051 457.874 91.3955 462.405 83.9409L463.074 82.8408H461.786H452.959Z" fill="#FEC753" stroke="black" stroke-width="1.44804"/>
<path d="M462.063 82.954L461.47 82.5764L461.075 83.1586C452.506 95.8009 440.161 99.4502 430.46 99.4502C420.864 99.4502 412.671 95.6434 406.857 87.9776C401.024 80.2884 397.536 68.6498 397.536 52.9233C397.536 40.4627 399.71 29.1766 404.124 21.0339C408.524 12.9179 415.111 7.9714 424.017 7.9714C430.033 7.9714 433.677 12.0079 436.541 17.7715C437.97 20.647 439.175 23.8941 440.371 27.187C440.455 27.4198 440.54 27.6529 440.625 27.8861C441.731 30.9354 442.843 34.0026 444.122 36.7615L444.532 37.647L445.26 36.9974L462.443 21.6767L463.005 21.1757L462.482 20.6337C454.642 12.5039 440.861 4.37559 424.446 4.37559C409.389 4.37559 396.346 9.48201 387.065 18.7445C377.783 28.0085 372.319 41.3749 372.319 57.7916C372.319 72.9864 377.314 85.8447 385.924 94.9097C394.536 103.977 406.723 109.203 421.01 109.203C439.894 109.203 454.868 99.7492 463.868 84.9432L464.237 84.3371L463.638 83.9563L462.063 82.954Z" fill="#FFF8EC" stroke="black" stroke-width="1.44804"/>
<path d="M155.16 109.166H155.884V108.442V67.1688C159.107 67.564 163.926 67.9284 167.903 67.9284C180.043 67.9284 189.885 64.8938 196.708 59.4103C203.547 53.9128 207.287 46.0036 207.287 36.4197C207.287 27.417 203.982 20.1723 197.332 15.2032C190.714 10.2586 180.872 7.63145 167.903 7.63145H133.396H132.672V8.35547V108.442V109.166H133.396H155.16ZM183.073 38.1379C183.073 46.4373 181.438 52.9902 178.166 57.4512C174.921 61.8751 169.998 64.3326 163.178 64.3326C160.203 64.3326 157.849 63.9753 155.884 63.3815V11.3704H163.321C170.4 11.3704 175.286 14.1636 178.436 18.8367C181.615 23.5539 183.073 30.2611 183.073 38.1379Z" fill="#808CE2" stroke="black" stroke-width="1.44804"/>
<path d="M162.631 109.166H163.355V108.442V67.1688C166.577 67.564 171.397 67.9284 175.374 67.9284C187.514 67.9284 197.356 64.8938 204.178 59.4103C211.018 53.9128 214.758 46.0036 214.758 36.4197C214.758 27.417 211.452 20.1723 204.802 15.2032C198.185 10.2586 188.342 7.63145 175.374 7.63145H140.866H140.142V8.35547V108.442V109.166H140.866H162.631ZM190.543 38.1379C190.543 46.4373 188.909 52.9902 185.636 57.4512C182.391 61.8751 177.468 64.3326 170.649 64.3326C167.674 64.3326 165.319 63.9753 163.355 63.3815V11.3704H170.792C177.87 11.3704 182.757 14.1636 185.906 18.8367C189.086 23.5539 190.543 30.2611 190.543 38.1379Z" fill="#FF7372" stroke="black" stroke-width="1.44804"/>
<path d="M171.346 109.166H172.07V108.442V67.1688C175.293 67.564 180.112 67.9284 184.09 67.9284C196.23 67.9284 206.071 64.8938 212.894 59.4103C219.733 53.9128 223.473 46.0036 223.473 36.4197C223.473 27.417 220.168 20.1723 213.518 15.2032C206.9 10.2586 197.058 7.63145 184.09 7.63145H149.582H148.858V8.35547V108.442V109.166H149.582H171.346ZM199.259 38.1379C199.259 46.4373 197.625 52.9902 194.352 57.4512C191.107 61.8751 186.184 64.3326 179.364 64.3326C176.39 64.3326 174.035 63.9753 172.07 63.3815V11.3704H179.508C186.586 11.3704 191.472 14.1636 194.622 18.8367C197.801 23.5539 199.259 30.2611 199.259 38.1379Z" fill="#FEC753" stroke="black" stroke-width="1.44804"/>
<path d="M181.307 109.166H182.031V108.442V67.1688C185.254 67.564 190.073 67.9284 194.05 67.9284C206.19 67.9284 216.032 64.8938 222.854 59.4103C229.694 53.9128 233.434 46.0036 233.434 36.4197C233.434 27.417 230.129 20.1723 223.479 15.2032C216.861 10.2586 207.018 7.63145 194.05 7.63145H159.543H158.819V8.35547V108.442V109.166H159.543H181.307ZM209.22 38.1379C209.22 46.4373 207.585 52.9902 204.313 57.4512C201.067 61.8751 196.145 64.3326 189.325 64.3326C186.35 64.3326 183.996 63.9753 182.031 63.3815V11.3704H189.468C196.547 11.3704 201.433 14.1636 204.582 18.8367C207.762 23.5539 209.22 30.2611 209.22 38.1379Z" fill="#FFF8EC" stroke="black" stroke-width="1.44804"/>
<path d="M293.57 7.63194H292.924L292.85 8.27341C292.582 10.6118 293.141 13.1498 293.905 15.8384C294.142 16.6747 294.4 17.5256 294.663 18.3966C295.261 20.3719 295.89 22.4502 296.389 24.6931C297.811 31.0859 298.127 38.6286 293.221 47.6704C293.221 47.6712 293.22 47.672 293.22 47.6728L286.98 58.9826L258.549 8.00331L258.342 7.63194H257.917H233.146H231.911L232.514 8.70953L265.354 67.3937V108.442V109.166H266.078H287.985H288.71V108.442V64.5235L296.783 49.5099C296.783 49.5093 296.784 49.5086 296.784 49.508C306.37 31.909 311.949 22.4678 320.109 8.7256L320.758 7.63194H319.486H293.57Z" fill="#808CE2" stroke="black" stroke-width="1.44804"/>
<path d="M298.059 38.7174L306.152 26.2666L309.576 39.9625L305.218 48.6781L298.059 38.7174Z" fill="#808CE2"/>
<path d="M302.285 7.63194H301.64L301.566 8.27341C301.298 10.6118 301.856 13.1498 302.62 15.8384C302.858 16.6747 303.115 17.5256 303.379 18.3966C303.977 20.3719 304.605 22.4502 305.104 24.6931C306.527 31.0859 306.842 38.6286 301.937 47.6704C301.936 47.6712 301.936 47.672 301.935 47.6728L295.695 58.9826L267.265 8.00331L267.057 7.63194H266.632H241.861H240.626L241.23 8.70953L274.07 67.3937V108.442V109.166H274.794H296.701H297.425V108.442V64.5235L305.498 49.5099C305.499 49.5093 305.499 49.5086 305.499 49.508C315.086 31.909 320.665 22.4678 328.824 8.7256L329.474 7.63194H328.202H302.285Z" fill="#FF7372" stroke="black" stroke-width="1.44804"/>
<path d="M304.906 46.8106L315.178 28.7568L320.47 35.6048L315.489 45.2542L307.085 55.2149L304.906 46.8106Z" fill="#FF7372"/>
<path fill-rule="evenodd" clip-rule="evenodd" d="M310.446 7.7334H338.011L337.453 8.67377C329.293 22.4167 323.713 31.8593 314.125 49.4607C314.125 49.4609 314.125 49.4611 314.125 49.4614L306.039 64.4979V109.065H282.887V67.3672L249.515 7.7334H275.713L304.411 59.1918L310.74 47.7212C310.74 47.7206 310.741 47.7199 310.741 47.7193C315.662 38.6503 315.345 31.081 313.919 24.671C313.419 22.4243 312.788 20.3399 312.19 18.363C311.927 17.4929 311.67 16.6437 311.433 15.8106C310.67 13.1226 310.117 10.6016 310.382 8.28497L310.446 7.7334ZM311.287 48.0181L304.414 60.4752L275.348 8.35594H250.577L283.509 67.2048V108.442H305.417V64.3411L313.578 49.1636C323.026 31.819 328.585 22.3902 336.548 8.97848C336.67 8.77193 336.793 8.56443 336.917 8.35594H311.001C310.674 11.2014 311.655 14.4419 312.779 18.1567C315.104 25.8449 318.045 35.5646 311.287 48.0181Z" fill="black"/>
<path fill-rule="evenodd" clip-rule="evenodd" d="M336.918 8.35596H311.001C310.675 11.2014 311.655 14.4419 312.779 18.1567C315.105 25.8449 318.045 35.5646 311.287 48.0181L304.415 60.4752L275.348 8.35596H250.577L283.51 67.2049V108.442H305.417V64.3412L310.032 55.7578L313.311 62.0629L329.497 30.002H324.242C328.444 22.6426 332.261 16.1984 336.918 8.35596Z" fill="#FEC753"/>
<path d="M319.716 7.63194H319.071L318.997 8.27341C318.729 10.6118 319.287 13.1498 320.051 15.8384C320.289 16.6747 320.546 17.5256 320.81 18.3966C321.408 20.3719 322.036 22.4502 322.536 24.6931C323.958 31.0859 324.273 38.6286 319.368 47.6704C319.367 47.6712 319.367 47.672 319.366 47.6728L313.127 58.9826L284.696 8.00331L284.489 7.63194H284.063H259.292H258.058L258.661 8.70953L291.501 67.3937V108.442V109.166H292.225H314.132H314.856V108.442V64.5235L322.93 49.5099C322.93 49.5093 322.93 49.5086 322.931 49.508C332.517 31.909 338.096 22.4678 346.255 8.7256L346.905 7.63194H345.633H319.716Z" fill="#FFF8EC" stroke="black" stroke-width="1.44804"/>
<mask id="path-23-outside-4_137_821" maskUnits="userSpaceOnUse" x="471.304" y="-2" width="115" height="112" fill="black">
<rect fill="white" x="471.304" y="-2" width="115" height="112"/>
<path fill-rule="evenodd" clip-rule="evenodd" d="M511.676 104.909C499.061 101.562 487.789 93.2677 480.413 79.5496C464.949 51.0559 475.688 22.4189 503.18 7.52774C514.184 1.57449 525.618 -0.918873 536.314 0.302199C552.821 1.05491 568.071 10.1256 577.698 28.0295C593.162 56.5232 582.566 85.3033 554.931 100.195C540.426 108.005 525.077 109.782 511.676 104.909ZM553.151 39.8875C567.183 65.9471 568.329 87.2816 550.86 96.7318C546.569 99.0593 542.139 99.9828 537.685 99.6337C526.048 96.5925 514.505 85.1653 505.103 67.6916C491.214 41.7752 489.925 20.1543 507.537 10.7041C511.753 8.43402 516.114 7.53319 520.506 7.87612C532.137 10.9181 543.721 22.3613 553.151 39.8875Z"/>
</mask>
<path fill-rule="evenodd" clip-rule="evenodd" d="M511.676 104.909C499.061 101.562 487.789 93.2677 480.413 79.5496C464.949 51.0559 475.688 22.4189 503.18 7.52774C514.184 1.57449 525.618 -0.918873 536.314 0.302199C552.821 1.05491 568.071 10.1256 577.698 28.0295C593.162 56.5232 582.566 85.3033 554.931 100.195C540.426 108.005 525.077 109.782 511.676 104.909ZM553.151 39.8875C567.183 65.9471 568.329 87.2816 550.86 96.7318C546.569 99.0593 542.139 99.9828 537.685 99.6337C526.048 96.5925 514.505 85.1653 505.103 67.6916C491.214 41.7752 489.925 20.1543 507.537 10.7041C511.753 8.43402 516.114 7.53319 520.506 7.87612C532.137 10.9181 543.721 22.3613 553.151 39.8875Z" fill="#808CE2"/>
<path d="M511.676 104.909L512.171 103.548L512.11 103.526L512.048 103.509L511.676 104.909ZM480.413 79.5496L481.689 78.8639L481.686 78.8589L480.413 79.5496ZM503.18 7.52774L502.491 6.25412L502.49 6.25449L503.18 7.52774ZM536.314 0.302199L536.15 1.7409L536.199 1.74649L536.248 1.74874L536.314 0.302199ZM577.698 28.0295L576.422 28.7152L576.425 28.7202L577.698 28.0295ZM554.931 100.195L555.618 101.469L555.618 101.469L554.931 100.195ZM550.86 96.7318L550.171 95.4582L550.17 95.4589L550.86 96.7318ZM553.151 39.8875L551.876 40.5736L551.876 40.574L553.151 39.8875ZM537.685 99.6337L537.319 101.035L537.444 101.067L537.572 101.077L537.685 99.6337ZM505.103 67.6916L503.827 68.3756L503.828 68.3777L505.103 67.6916ZM507.537 10.7041L508.222 11.9801L508.224 11.9791L507.537 10.7041ZM520.506 7.87612L520.872 6.4752L520.747 6.44253L520.619 6.43248L520.506 7.87612ZM512.048 103.509C499.822 100.265 488.876 92.2309 481.689 78.8639L479.138 80.2354C486.703 94.3044 498.301 102.858 511.305 106.308L512.048 103.509ZM481.686 78.8589C474.126 64.9297 473.012 51.0615 477.062 38.895C481.117 26.7139 490.395 16.0995 503.869 8.80099L502.49 6.25449C488.473 13.8472 478.636 24.9968 474.314 37.9804C469.988 50.9787 471.236 65.6758 479.141 80.2403L481.686 78.8589ZM503.869 8.80135C514.656 2.96563 525.794 0.558668 536.15 1.7409L536.479 -1.1365C525.442 -2.39641 513.712 0.183352 502.491 6.25412L503.869 8.80135ZM536.248 1.74874C552.214 2.47677 567.021 11.2309 576.422 28.7152L578.973 27.3437C569.121 9.02026 553.428 -0.366959 536.38 -1.14434L536.248 1.74874ZM576.425 28.7202C583.985 42.6509 585.134 56.5562 581.102 68.7585C577.064 80.9741 567.787 91.6223 554.244 98.9198L555.618 101.469C569.71 93.8755 579.548 82.688 583.851 69.6673C588.159 56.6334 586.874 41.9018 578.97 27.3388L576.425 28.7202ZM554.245 98.9196C540.029 106.574 525.112 108.254 512.171 103.548L511.181 106.27C525.042 111.311 540.822 109.436 555.618 101.469L554.245 98.9196ZM551.549 98.0054C560.796 93.0032 565.116 84.7947 565.266 74.5594C565.415 64.4316 561.494 52.3265 554.426 39.201L551.876 40.574C558.841 53.508 562.508 65.1 562.37 74.5169C562.234 83.8263 558.393 91.0102 550.171 95.4582L551.549 98.0054ZM537.572 101.077C542.314 101.449 547.022 100.461 551.55 98.0046L550.17 95.4589C546.116 97.6576 541.964 98.5166 537.799 98.19L537.572 101.077ZM503.828 68.3777C513.296 85.9755 525.097 97.8405 537.319 101.035L538.052 98.2327C526.999 95.3444 515.713 84.3552 506.378 67.0055L503.828 68.3777ZM506.852 9.42816C497.527 14.4322 493.209 22.7174 493.059 33.0019C492.911 43.1812 496.83 55.3208 503.827 68.3756L506.379 67.0076C499.487 54.1461 495.817 42.517 495.955 33.0441C496.092 23.6766 499.936 16.4262 508.222 11.9801L506.852 9.42816ZM520.619 6.43248C515.942 6.0673 511.304 7.03107 506.851 9.42916L508.224 11.9791C512.202 9.83697 516.286 8.99909 520.393 9.31977L520.619 6.43248ZM554.426 39.2014C544.929 21.5506 533.088 9.67008 520.872 6.4752L520.14 9.27704C531.186 12.1662 542.513 23.1721 551.876 40.5736L554.426 39.2014Z" fill="black" mask="url(#path-23-outside-4_137_821)"/>
<path d="M558.387 100.09L558.388 100.09L580.811 27.2872L581.448 26.9443C581.448 26.9442 581.448 26.9441 581.448 26.944C573.703 12.54 562.558 3.91082 549.99 0.705035C537.432 -2.49806 523.536 -0.266528 510.306 6.89093L510.305 6.89111C496.424 14.4103 486.727 25.4261 482.472 38.2091C478.214 50.999 479.429 65.4884 487.247 79.8937C494.992 94.2982 506.173 102.926 518.757 106.15C531.331 109.37 545.227 107.176 558.387 100.09ZM557.986 96.095L557.985 96.0953C549.805 100.532 541.098 99.7281 532.631 94.5394C524.136 89.3329 515.908 79.7167 508.854 66.6074C501.935 53.6975 498.204 41.9408 498.344 32.2913C498.484 22.6945 502.446 15.1855 510.992 10.5999L510.993 10.5994C519.1 6.23442 527.771 7.07105 536.222 12.2786C544.702 17.5034 552.93 27.1209 559.984 40.2305L559.984 40.2307C566.974 53.2127 570.705 64.9329 570.565 74.5275C570.425 84.0684 566.464 91.5084 557.986 96.095Z" fill="#FF7372" stroke="black" stroke-width="1.44804"/>
<mask id="path-26-outside-5_137_821" maskUnits="userSpaceOnUse" x="478.774" y="-2" width="115" height="112" fill="black">
<rect fill="white" x="478.774" y="-2" width="115" height="112"/>
<path fill-rule="evenodd" clip-rule="evenodd" d="M519.148 104.909C506.533 101.562 495.26 93.2681 487.884 79.5496C472.42 51.0559 483.159 22.4189 510.65 7.52774C521.654 1.57453 533.088 -0.918838 543.785 0.302173C560.291 1.0547 575.542 10.1254 585.168 28.0295C600.632 56.5232 590.037 85.3033 562.402 100.195C547.897 108.005 532.549 109.782 519.148 104.909ZM560.621 39.8875C574.654 65.9471 575.799 87.2816 558.331 96.7318C554.039 99.0592 549.61 99.9827 545.156 99.6337C533.519 96.5926 521.975 85.1654 512.574 67.6916C498.685 41.7752 497.396 20.1543 515.008 10.7041C519.224 8.4341 523.585 7.53326 527.976 7.87609C539.607 10.918 551.192 22.3613 560.621 39.8875Z"/>
</mask>
<path fill-rule="evenodd" clip-rule="evenodd" d="M519.148 104.909C506.533 101.562 495.26 93.2681 487.884 79.5496C472.42 51.0559 483.159 22.4189 510.65 7.52774C521.654 1.57453 533.088 -0.918838 543.785 0.302173C560.291 1.0547 575.542 10.1254 585.168 28.0295C600.632 56.5232 590.037 85.3033 562.402 100.195C547.897 108.005 532.549 109.782 519.148 104.909ZM560.621 39.8875C574.654 65.9471 575.799 87.2816 558.331 96.7318C554.039 99.0592 549.61 99.9827 545.156 99.6337C533.519 96.5926 521.975 85.1654 512.574 67.6916C498.685 41.7752 497.396 20.1543 515.008 10.7041C519.224 8.4341 523.585 7.53326 527.976 7.87609C539.607 10.918 551.192 22.3613 560.621 39.8875Z" fill="#FF7372"/>
<path d="M519.148 104.909L519.643 103.548L519.582 103.526L519.519 103.509L519.148 104.909ZM487.884 79.5496L489.159 78.8638L489.156 78.8589L487.884 79.5496ZM510.65 7.52774L509.961 6.25412L509.96 6.25449L510.65 7.52774ZM543.785 0.302173L543.62 1.74087L543.669 1.74647L543.719 1.74871L543.785 0.302173ZM585.168 28.0295L583.893 28.7152L583.896 28.7202L585.168 28.0295ZM562.402 100.195L563.089 101.469L563.089 101.469L562.402 100.195ZM558.331 96.7318L557.642 95.4582L557.64 95.4589L558.331 96.7318ZM560.621 39.8875L559.346 40.5736L559.347 40.574L560.621 39.8875ZM545.156 99.6337L544.79 101.035L544.915 101.067L545.043 101.077L545.156 99.6337ZM512.574 67.6916L511.298 68.3756L511.299 68.3777L512.574 67.6916ZM515.008 10.7041L515.693 11.9801L515.694 11.9791L515.008 10.7041ZM527.976 7.87609L528.343 6.47516L528.218 6.44249L528.089 6.43244L527.976 7.87609ZM519.519 103.509C507.293 100.266 496.347 92.2314 489.159 78.8639L486.608 80.2354C494.173 94.3049 505.772 102.859 518.777 106.309L519.519 103.509ZM489.156 78.8589C481.597 64.9297 480.483 51.0615 484.532 38.895C488.587 26.7139 497.866 16.0995 511.34 8.80099L509.96 6.25449C495.943 13.8472 486.106 24.9968 481.785 37.9804C477.458 50.9787 478.707 65.6758 486.611 80.2403L489.156 78.8589ZM511.339 8.80135C522.126 2.96567 533.264 0.558702 543.62 1.74087L543.949 -1.13653C532.912 -2.39638 521.183 0.183395 509.961 6.25412L511.339 8.80135ZM543.719 1.74871C559.684 2.47657 574.492 11.2307 583.893 28.7152L586.444 27.3437C576.591 9.02004 560.898 -0.367173 543.85 -1.14437L543.719 1.74871ZM583.896 28.7202C591.456 42.6509 592.605 56.5562 588.572 68.7585C584.535 80.9741 575.258 91.6223 561.715 98.9198L563.089 101.469C577.181 93.8755 587.019 82.688 591.322 69.6673C595.63 56.6334 594.345 41.9018 586.441 27.3388L583.896 28.7202ZM561.716 98.9196C547.501 106.574 532.584 108.254 519.643 103.548L518.653 106.27C532.514 111.31 548.293 109.436 563.089 101.469L561.716 98.9196ZM559.02 98.0054C568.266 93.0032 572.587 84.7947 572.737 74.5594C572.885 64.4316 568.964 52.3265 561.896 39.201L559.347 40.574C566.311 53.508 569.979 65.1 569.841 74.5169C569.704 83.8263 565.864 91.0102 557.642 95.4582L559.02 98.0054ZM545.043 101.077C549.784 101.449 554.492 100.461 559.021 98.0046L557.64 95.4589C553.587 97.6575 549.435 98.5165 545.269 98.1901L545.043 101.077ZM511.299 68.3777C520.767 85.9756 532.567 97.8407 544.79 101.035L545.522 98.2327C534.47 95.3445 523.184 84.3552 513.849 67.0055L511.299 68.3777ZM514.323 9.42816C504.998 14.4322 500.68 22.7174 500.53 33.0019C500.382 43.1812 504.301 55.3208 511.298 68.3756L513.85 67.0076C506.957 54.1461 503.288 42.517 503.426 33.0441C503.563 23.6766 507.407 16.4262 515.693 11.9801L514.323 9.42816ZM528.089 6.43244C523.412 6.06737 518.775 7.03116 514.321 9.42916L515.694 11.9791C519.673 9.83705 523.757 8.99915 527.864 9.31974L528.089 6.43244ZM561.897 39.2014C552.4 21.5505 540.558 9.66998 528.343 6.47516L527.61 9.27701C538.656 12.1661 549.983 23.172 559.346 40.5736L561.897 39.2014Z" fill="black" mask="url(#path-26-outside-5_137_821)"/>
<mask id="path-28-outside-6_137_821" maskUnits="userSpaceOnUse" x="486.245" y="-2" width="115" height="112" fill="black">
<rect fill="white" x="486.245" y="-2" width="115" height="112"/>
<path fill-rule="evenodd" clip-rule="evenodd" d="M526.618 104.909C514.003 101.562 502.73 93.2682 495.354 79.5496C479.89 51.0559 490.629 22.4189 518.12 7.52774C529.125 1.57456 540.558 -0.918812 551.255 0.302153C567.761 1.05462 583.012 10.1253 592.639 28.0295C608.103 56.5232 597.507 85.3033 569.872 100.195C555.367 108.005 540.019 109.782 526.618 104.909ZM568.092 39.8875C582.124 65.9471 583.269 87.2816 565.801 96.7318C561.51 99.0592 557.08 99.9827 552.627 99.6337C540.989 96.5926 529.446 85.1654 520.044 67.6916C506.155 41.7752 504.866 20.1543 522.478 10.7041C526.694 8.43411 531.055 7.53326 535.446 7.87607C547.078 10.918 558.662 22.3612 568.092 39.8875Z"/>
</mask>
<path fill-rule="evenodd" clip-rule="evenodd" d="M526.618 104.909C514.003 101.562 502.73 93.2682 495.354 79.5496C479.89 51.0559 490.629 22.4189 518.12 7.52774C529.125 1.57456 540.558 -0.918812 551.255 0.302153C567.761 1.05462 583.012 10.1253 592.639 28.0295C608.103 56.5232 597.507 85.3033 569.872 100.195C555.367 108.005 540.019 109.782 526.618 104.909ZM568.092 39.8875C582.124 65.9471 583.269 87.2816 565.801 96.7318C561.51 99.0592 557.08 99.9827 552.627 99.6337C540.989 96.5926 529.446 85.1654 520.044 67.6916C506.155 41.7752 504.866 20.1543 522.478 10.7041C526.694 8.43411 531.055 7.53326 535.446 7.87607C547.078 10.918 558.662 22.3612 568.092 39.8875Z" fill="#FEC753"/>
<path d="M526.618 104.909L527.113 103.548L527.052 103.526L526.99 103.51L526.618 104.909ZM495.354 79.5496L496.629 78.8639L496.627 78.8589L495.354 79.5496ZM518.12 7.52774L517.431 6.25412L517.431 6.25449L518.12 7.52774ZM551.255 0.302153L551.09 1.74085L551.139 1.74645L551.189 1.74869L551.255 0.302153ZM592.639 28.0295L591.363 28.7152L591.366 28.7202L592.639 28.0295ZM569.872 100.195L570.559 101.469L570.559 101.469L569.872 100.195ZM565.801 96.7318L565.112 95.4582L565.11 95.4589L565.801 96.7318ZM568.092 39.8875L566.816 40.5736L566.817 40.574L568.092 39.8875ZM552.627 99.6337L552.261 101.035L552.385 101.067L552.514 101.077L552.627 99.6337ZM520.044 67.6916L518.768 68.3756L518.769 68.3777L520.044 67.6916ZM522.478 10.7041L523.163 11.9801L523.165 11.9791L522.478 10.7041ZM535.446 7.87607L535.813 6.47515L535.688 6.44247L535.559 6.43242L535.446 7.87607ZM526.99 103.51C514.763 100.266 503.817 92.2314 496.629 78.8639L494.079 80.2354C501.644 94.3049 513.243 102.859 526.247 106.309L526.99 103.51ZM496.627 78.8589C489.067 64.9297 487.953 51.0615 492.003 38.895C496.057 26.7139 505.336 16.0995 518.81 8.80099L517.431 6.25449C503.413 13.8472 493.577 24.9968 489.255 37.9804C484.928 50.9787 486.177 65.6758 494.081 80.2403L496.627 78.8589ZM518.809 8.80135C529.596 2.9657 540.734 0.558727 551.09 1.74085L551.419 -1.13655C540.382 -2.39635 528.653 0.183427 517.431 6.25412L518.809 8.80135ZM551.189 1.74869C567.154 2.4765 581.962 11.2307 591.363 28.7152L593.914 27.3437C584.062 9.01997 568.368 -0.367253 551.321 -1.14439L551.189 1.74869ZM591.366 28.7202C598.926 42.6509 600.075 56.5562 596.043 68.7585C592.005 80.9741 582.728 91.6223 569.185 98.9198L570.559 101.469C584.651 93.8755 594.489 82.688 598.792 69.6673C603.1 56.6334 601.815 41.9018 593.911 27.3387L591.366 28.7202ZM569.186 98.9195C554.971 106.574 540.054 108.254 527.113 103.548L526.124 106.27C539.984 111.31 555.763 109.436 570.559 101.469L569.186 98.9195ZM566.49 98.0054C575.736 93.0032 580.057 84.7947 580.207 74.5594C580.355 64.4316 576.434 52.3265 569.367 39.201L566.817 40.574C573.781 53.508 577.449 65.1 577.311 74.5169C577.175 83.8263 573.334 91.0102 565.112 95.4582L566.49 98.0054ZM552.514 101.077C557.255 101.449 561.962 100.461 566.491 98.0046L565.11 95.4589C561.057 97.6575 556.905 98.5165 552.74 98.1901L552.514 101.077ZM518.769 68.3777C528.237 85.9756 540.038 97.8407 552.261 101.035L552.993 98.2327C541.94 95.3445 530.654 84.3553 521.319 67.0055L518.769 68.3777ZM521.794 9.42815C512.468 14.4322 508.15 22.7174 508 33.0019C507.852 43.1811 511.771 55.3207 518.768 68.3756L521.32 67.0076C514.428 54.1461 510.758 42.517 510.896 33.0441C511.033 23.6766 514.877 16.4262 523.163 11.9801L521.794 9.42815ZM535.559 6.43242C530.882 6.06737 526.245 7.03116 521.792 9.42915L523.165 11.9791C527.143 9.83705 531.227 8.99915 535.334 9.31972L535.559 6.43242ZM569.367 39.2014C559.87 21.5505 548.028 9.66993 535.813 6.47515L535.08 9.27699C546.127 12.166 557.454 23.172 566.816 40.5736L569.367 39.2014Z" fill="black" mask="url(#path-28-outside-6_137_821)"/>
<path d="M575.819 100.09L575.819 100.09L598.242 27.2872L598.879 26.9443C598.879 26.9442 598.879 26.9441 598.879 26.944C591.134 12.54 579.989 3.91082 567.421 0.705035C554.864 -2.49806 540.967 -0.266528 527.737 6.89093L527.736 6.89111C513.855 14.4103 504.158 25.4261 499.903 38.2091C495.646 50.999 496.86 65.4884 504.678 79.8937C512.423 94.2982 523.604 102.926 536.188 106.15C548.762 109.37 562.658 107.176 575.819 100.09ZM575.417 96.095L575.416 96.0953C567.236 100.532 558.529 99.7281 550.062 94.5394C541.567 89.3329 533.339 79.7167 526.285 66.6074C519.367 53.6975 515.635 41.9408 515.775 32.2913C515.915 22.6945 519.878 15.1855 528.424 10.5999L528.424 10.5994C536.531 6.23442 545.202 7.07105 553.654 12.2786C562.133 17.5034 570.361 27.1209 577.415 40.2305L577.415 40.2307C584.405 53.2127 588.137 64.9329 587.996 74.5275C587.856 84.0684 583.895 91.5084 575.417 96.095Z" fill="#FFF8EC" stroke="black" stroke-width="1.44804"/>
<path d="M796.706 69.3012L797.004 68.2406L795.912 68.3878C786.026 69.72 777.066 70.3354 764.176 70.3354H759.82C771.025 61.8397 779.792 54.8996 785.829 48.3984C792.184 41.555 795.596 35.1129 795.596 27.7602C795.596 20.9621 792.863 15.84 788.565 12.434C784.286 9.04423 778.509 7.39219 772.444 7.39219C756.964 7.39219 749.018 17.9576 745.966 23.7187L745.607 24.3958L746.303 24.7157L747.647 25.3327L748.202 25.5876L748.546 25.0838C753.286 18.1601 758.965 15.5254 764.589 15.5254C768.474 15.5254 771.897 16.7134 774.344 19.0762C776.785 21.4333 778.334 25.0356 778.334 30.0229C778.334 37.2733 775.191 44.6637 770.201 52.1183C765.215 59.5678 758.433 67.0106 751.255 74.3588L751.249 74.3653L745.564 80.3305L745.365 80.5403V80.83V81.2414V81.9654H746.089H792.598H793.146L793.295 81.4373L796.706 69.3012ZM852.852 55.0151V54.291H852.128H843.137V9.14469V8.42067H842.413H838.382H838.042L837.824 8.68288L797.62 57.2273L797.346 57.5581L797.505 57.9571L799.882 63.9224L800.064 64.3784H800.554H827.633V81.2414V81.9654H828.357H842.413H843.137V81.2414V64.3784H852.128H852.852V63.6543V55.0151ZM827.633 26.0737V54.291H804.364L827.633 26.0737Z" fill="#FFF8EC" stroke="black" stroke-width="1.44804"/>
<path d="M56.4957 111.171C86.0405 111.171 109.991 87.2197 109.991 57.6749C109.991 28.13 86.0405 4.1792 56.4957 4.1792C26.9508 4.1792 3 28.13 3 57.6749C3 87.2197 26.9508 111.171 56.4957 111.171Z" stroke="#FFF8EC" stroke-width="4.34413" stroke-miterlimit="10"/>
<path d="M56.913 20.5344C54.0809 20.5344 51.2487 20.7783 48.4559 21.2582C40.9666 22.5798 39.6056 25.349 39.6056 30.4547V37.1967H57.3063V39.4467H32.9579C27.8129 39.4467 23.313 42.5384 21.9048 48.4151C20.2763 55.1571 20.2055 59.366 21.9048 66.3991C23.1635 71.6385 26.1687 75.3675 31.3059 75.3675H37.3949V67.2881C37.5287 61.2462 42.4141 56.4001 48.4481 56.2978H66.1253C71.05 56.2585 75.0071 52.2385 74.9756 47.3137C74.9756 47.3137 74.9756 47.3137 74.9756 47.3058V30.4547C74.9756 25.6558 70.932 22.0527 66.1253 21.2582C63.0807 20.7626 59.9969 20.5187 56.9051 20.5344H56.913ZM47.3388 25.9626C49.2033 25.9312 50.7374 27.418 50.761 29.2825C50.7925 31.147 49.3056 32.6811 47.4411 32.7047C45.5766 32.7361 44.0426 31.2493 44.019 29.3848C44.019 29.3691 44.019 29.3612 44.019 29.3455C44.0032 27.4967 45.4901 25.9862 47.3388 25.9626Z" fill="#FFF8EC"/>
<path d="M77.1858 39.4546V47.3137C77.115 53.4185 72.2296 58.3748 66.1327 58.5321H48.4555C43.5543 58.6265 39.6208 62.6229 39.6051 67.5319V84.3831C39.6051 89.182 43.7746 91.9984 48.4555 93.3751C54.2063 95.1766 60.374 95.1766 66.1327 93.3751C70.5854 92.0849 74.9831 89.4888 74.9831 84.3831V77.6411H57.3059V75.3911H83.8334C88.9785 75.3911 90.8901 71.8037 92.6838 66.4227C94.5326 60.8765 94.4539 55.5505 92.6838 48.4387C91.4094 43.3173 88.9863 39.4703 83.8334 39.4703H77.1937L77.1858 39.4546ZM67.2419 82.1331C69.1064 82.1017 70.6405 83.5885 70.6641 85.453C70.6955 87.3175 69.2087 88.8516 67.3442 88.8752C65.4797 88.9066 63.9456 87.4198 63.922 85.5553C63.922 85.5317 63.922 85.5159 63.922 85.4923C63.9063 83.6515 65.3932 82.141 67.2419 82.1331Z" fill="#FFF8EC"/>
<path d="M833.787 148.655H824.138L822.592 153.222H815.999L825.354 127.368H832.646L842 153.222H835.334L833.787 148.655ZM832.167 143.794L828.963 134.329L825.796 143.794H832.167Z" fill="white"/>
<path d="M739.105 127.368V153.222H732.807V127.368H739.105Z" fill="white"/>
<path d="M650.158 139.963C651.656 140.283 652.859 141.031 653.768 142.21C654.676 143.364 655.13 144.69 655.13 146.187C655.13 148.348 654.369 150.067 652.847 151.343C651.349 152.596 649.25 153.222 646.549 153.222H634.506V127.368H646.144C648.771 127.368 650.821 127.97 652.294 129.173C653.792 130.376 654.541 132.009 654.541 134.071C654.541 135.593 654.136 136.858 653.326 137.864C652.54 138.871 651.484 139.571 650.158 139.963ZM640.804 137.827H644.929C645.96 137.827 646.746 137.606 647.286 137.164C647.85 136.698 648.133 136.023 648.133 135.139C648.133 134.255 647.85 133.58 647.286 133.113C646.746 132.647 645.96 132.414 644.929 132.414H640.804V137.827ZM645.444 148.139C646.5 148.139 647.31 147.906 647.875 147.44C648.464 146.949 648.759 146.249 648.759 145.34C648.759 144.432 648.452 143.72 647.838 143.204C647.249 142.689 646.426 142.431 645.371 142.431H640.804V148.139H645.444Z" fill="white"/>
<path d="M555.953 127.368V153.222H549.655V137.717L543.873 153.222H538.791L532.972 137.68V153.222H526.674V127.368H534.114L541.369 145.267L548.55 127.368H555.953Z" fill="white"/>
<path d="M435.925 153.479C433.494 153.479 431.26 152.915 429.222 151.785C427.209 150.656 425.6 149.085 424.397 147.071C423.219 145.034 422.63 142.75 422.63 140.221C422.63 137.692 423.219 135.421 424.397 133.408C425.6 131.395 427.209 129.823 429.222 128.694C431.26 127.565 433.494 127 435.925 127C438.355 127 440.577 127.565 442.591 128.694C444.628 129.823 446.224 131.395 447.378 133.408C448.557 135.421 449.146 137.692 449.146 140.221C449.146 142.75 448.557 145.034 447.378 147.071C446.2 149.085 444.604 150.656 442.591 151.785C440.577 152.915 438.355 153.479 435.925 153.479ZM435.925 147.734C437.987 147.734 439.632 147.047 440.86 145.672C442.112 144.297 442.738 142.48 442.738 140.221C442.738 137.938 442.112 136.121 440.86 134.771C439.632 133.396 437.987 132.708 435.925 132.708C433.838 132.708 432.168 133.384 430.916 134.734C429.688 136.084 429.075 137.913 429.075 140.221C429.075 142.505 429.688 144.334 430.916 145.709C432.168 147.059 433.838 147.734 435.925 147.734Z" fill="white"/>
<path d="M338.42 148.36H346.669V153.222H332.122V127.368H338.42V148.36Z" fill="white"/>
<path d="M241.373 153.479C238.942 153.479 236.708 152.915 234.67 151.785C232.657 150.656 231.049 149.085 229.846 147.071C228.667 145.034 228.078 142.75 228.078 140.221C228.078 137.692 228.667 135.421 229.846 133.408C231.049 131.395 232.657 129.823 234.67 128.694C236.708 127.565 238.942 127 241.373 127C243.804 127 246.026 127.565 248.039 128.694C250.077 129.823 251.672 131.395 252.826 133.408C254.005 135.421 254.594 137.692 254.594 140.221C254.594 142.75 254.005 145.034 252.826 147.071C251.648 149.085 250.052 150.656 248.039 151.785C246.026 152.915 243.804 153.479 241.373 153.479ZM241.373 147.734C243.435 147.734 245.08 147.047 246.308 145.672C247.56 144.297 248.186 142.48 248.186 140.221C248.186 137.938 247.56 136.121 246.308 134.771C245.08 133.396 243.435 132.708 241.373 132.708C239.286 132.708 237.616 133.384 236.364 134.734C235.137 136.084 234.523 137.913 234.523 140.221C234.523 142.505 235.137 144.334 236.364 145.709C237.616 147.059 239.286 147.734 241.373 147.734Z" fill="white"/>
<path d="M126 140.258C126 137.705 126.552 135.434 127.657 133.445C128.762 131.432 130.297 129.873 132.261 128.768C134.25 127.638 136.496 127.074 139 127.074C142.069 127.074 144.696 127.884 146.882 129.504C149.067 131.125 150.528 133.335 151.264 136.133H144.34C143.825 135.053 143.088 134.231 142.131 133.666C141.198 133.101 140.13 132.819 138.927 132.819C136.987 132.819 135.416 133.494 134.213 134.844C133.01 136.195 132.408 137.999 132.408 140.258C132.408 142.517 133.01 144.322 134.213 145.672C135.416 147.022 136.987 147.698 138.927 147.698C140.13 147.698 141.198 147.415 142.131 146.85C143.088 146.286 143.825 145.463 144.34 144.383H151.264C150.528 147.182 149.067 149.392 146.882 151.012C144.696 152.608 142.069 153.406 139 153.406C136.496 153.406 134.25 152.853 132.261 151.749C130.297 150.619 128.762 149.06 127.657 147.071C126.552 145.083 126 142.812 126 140.258Z" fill="white"/>
</svg>
